<?xml version="1.0" standalone="no"?>
<!DOCTYPE svg PUBLIC "-//W3C//DTD SVG 20010904//EN"
 "http://www.w3.org/TR/2001/REC-SVG-20010904/DTD/svg10.dtd">
<svg version="1.0" xmlns="http://www.w3.org/2000/svg"
 width="310.000000pt" height="310.000000pt" viewBox="0 0 310.000000 310.000000"
 preserveAspectRatio="xMidYMid meet">
<metadata>
Created by potrace 1.11, written by Peter Selinger 2001-2013
</metadata>
<g transform="translate(0.000000,310.000000) scale(0.100000,-0.100000)"
fill="#000000" stroke="none">
<path d="M1445 3023 c-204 -33 -574 -146 -610 -187 -11 -13 -40 -37 -65 -53
-64 -44 -178 -166 -237 -253 -113 -170 -289 -517 -342 -676 -69 -209 -95 -438
-89 -783 4 -210 7 -243 26 -298 41 -116 106 -207 211 -295 l44 -37 -50 -73
c-27 -40 -53 -80 -58 -88 -15 -28 10 4 58 72 26 37 52 70 57 73 5 3 38 -7 72
-23 76 -36 174 -58 328 -72 63 -6 150 -21 193 -32 83 -22 108 -19 60 6 -35 18
-168 43 -278 52 -44 3 -111 13 -150 20 -82 17 -207 72 -198 87 4 6 0 8 -9 5
-36 -14 -175 131 -228 239 -48 96 -60 173 -60 384 0 337 32 589 101 785 42
120 227 483 312 612 82 123 186 237 265 288 32 20 70 45 86 56 42 30 208 21
326 -17 210 -68 354 -163 683 -450 140 -121 157 -134 157 -118 0 20 -330 303
-465 400 -171 123 -376 209 -522 220 -41 3 -70 9 -66 13 15 14 199 70 293 89
229 47 327 49 478 10 204 -54 455 -241 604 -449 116 -163 167 -294 199 -515
12 -82 27 -170 35 -194 7 -25 11 -47 9 -49 -2 -2 -30 20 -61 49 -76 71 -121
145 -164 263 -7 19 -14 26 -21 19 -12 -12 38 -136 79 -195 37 -53 109 -122
182 -175 88 -64 150 -133 184 -203 26 -55 30 -77 30 -140 0 -98 -19 -139 -126
-271 -101 -125 -138 -178 -138 -199 0 -9 -21 -32 -47 -52 -70 -53 -373 -370
-379 -395 -4 -19 -110 -137 -150 -168 -61 -47 -138 -76 -216 -81 l-73 -5 120
63 c126 67 319 187 311 195 -2 2 -26 -11 -53 -30 -82 -58 -214 -134 -319 -183
-54 -25 -155 -75 -224 -109 -146 -73 -184 -87 -246 -87 -25 0 -43 -2 -40 -5 9
-9 86 -5 124 8 20 6 91 39 157 72 114 57 125 60 218 68 77 6 112 14 161 37 84
39 123 76 294 277 229 268 349 375 507 451 39 19 59 31 45 28 -14 -3 -54 -21
-89 -40 -36 -18 -66 -32 -68 -31 -5 6 53 89 103 147 26 30 63 76 81 102 31 43
37 46 59 38 14 -6 33 -10 42 -9 9 0 1 5 -18 11 -19 5 -36 11 -38 13 -2 1 4 29
14 61 39 134 -5 264 -130 381 -88 83 -94 98 -131 329 -14 83 -34 182 -46 220
-105 343 -443 679 -779 774 -74 21 -258 34 -325 23z"/>
<path d="M991 2759 c-58 -11 -195 -76 -248 -116 -24 -18 -50 -33 -58 -33 -8 0
-15 -4 -15 -8 0 -4 -20 -39 -45 -76 -25 -38 -50 -87 -56 -108 -5 -22 -45 -114
-88 -206 -80 -172 -95 -208 -206 -520 -117 -328 -144 -477 -111 -624 47 -212
221 -434 416 -532 82 -41 115 -50 323 -91 48 -10 115 -31 150 -47 34 -16 63
-25 65 -20 3 9 152 -17 201 -36 23 -8 21 -10 -30 -39 -66 -38 -106 -78 -114
-118 -5 -25 -3 -23 13 11 11 22 32 50 47 63 32 24 110 61 131 61 8 0 23 9 34
20 11 11 26 17 35 14 8 -4 15 -2 15 3 0 6 65 54 145 108 79 54 143 101 140
103 -2 2 -54 -30 -115 -72 -61 -42 -113 -76 -115 -76 -3 0 -5 9 -5 20 0 35
-31 174 -41 184 -18 20 -7 23 80 28 113 7 163 32 282 146 78 73 239 257 263
299 21 38 -17 0 -89 -87 -147 -178 -293 -310 -361 -325 -23 -5 -18 0 21 23 45
27 97 72 83 72 -3 0 -29 -15 -57 -34 -28 -19 -77 -44 -108 -56 -54 -20 -69
-21 -198 -15 l-140 7 -70 67 c-38 37 -95 88 -125 114 -42 34 -72 74 -120 157
-36 61 -86 146 -113 188 -26 42 -57 102 -69 132 -22 59 -24 103 -18 431 l3
157 109 -4 c100 -4 109 -2 106 13 -2 13 -17 20 -48 24 -68 11 -99 17 -109 23
-5 3 -20 -4 -35 -15 l-26 -20 0 33 c1 60 19 163 30 166 6 2 16 10 23 16 6 7
21 10 34 8 18 -3 23 0 23 17 0 27 2 27 55 -13 72 -56 122 -62 74 -10 -24 26
-24 27 -1 15 12 -7 27 -9 33 -5 6 3 18 -1 27 -9 27 -25 64 -35 94 -26 16 4 30
3 33 -2 9 -14 35 -11 52 6 13 14 14 22 3 61 -16 57 -8 65 19 21 20 -33 39 -47
62 -47 6 0 9 6 8 13 -4 31 3 64 17 82 15 19 15 19 26 1 20 -35 49 -59 60 -48
7 7 21 5 44 -4 40 -17 43 -8 9 25 -35 33 -31 44 8 21 27 -16 41 -18 84 -11 38
6 53 5 57 -4 2 -7 43 -31 90 -54 68 -32 96 -40 133 -39 l46 2 90 -94 c107
-114 155 -183 213 -304 114 -240 119 -431 18 -653 -74 -163 -201 -331 -402
-531 -132 -132 -169 -183 -74 -104 64 54 223 220 293 307 119 148 211 307 251
435 19 62 23 96 23 200 -1 114 -4 133 -33 217 -69 202 -139 308 -337 513 -102
106 -171 187 -216 256 -75 114 -125 155 -289 241 -188 98 -311 132 -409 112z
m570 -466 c13 -16 12 -17 -3 -4 -10 7 -18 15 -18 17 0 8 8 3 21 -13z m-1021
-90 c1 -68 34 -226 49 -231 6 -2 14 -4 18 -4 5 0 18 -16 31 -34 12 -18 31 -38
41 -44 27 -14 35 -108 22 -254 -18 -191 3 -301 83 -421 19 -27 68 -109 111
-182 66 -112 89 -142 154 -199 143 -125 185 -168 170 -172 -8 -3 -40 -30 -71
-61 -31 -31 -73 -71 -92 -89 -20 -18 -36 -40 -36 -50 0 -12 7 -8 26 16 37 46
104 89 160 102 27 7 69 18 94 25 25 7 66 15 93 18 40 4 47 2 47 -14 0 -10 -4
-20 -9 -24 -5 -3 -28 -33 -50 -66 -49 -74 -54 -117 -16 -147 38 -30 14 -36
-57 -14 -35 11 -94 25 -133 32 -38 7 -95 23 -125 35 -66 28 -147 49 -255 65
-231 35 -434 190 -550 419 -79 159 -88 293 -31 511 61 234 290 838 319 840 4
0 7 -26 7 -57z m749 -1547 c-11 -10 -129 -66 -129 -61 0 11 95 65 114 65 10 0
17 -2 15 -4z m101 -13 c-19 -2 -57 -11 -83 -19 -27 -9 -51 -14 -54 -11 -9 10
90 36 132 35 39 -1 39 -1 5 -5z m87 -171 c4 -54 2 -70 -10 -81 -9 -7 -21 -10
-27 -6 -13 8 -13 99 1 149 9 33 13 37 21 23 5 -10 12 -48 15 -85z"/>
<path d="M1390 2104 c-41 -18 -83 -34 -92 -34 -9 0 -19 -4 -23 -10 -3 -5 -12
-7 -19 -4 -15 6 -59 -43 -51 -56 3 -5 17 -7 30 -4 14 2 37 6 52 8 16 2 54 15
87 30 32 14 77 27 100 27 23 1 32 4 21 6 -15 4 -9 9 24 19 31 9 50 10 64 3 10
-6 21 -8 24 -6 2 3 -5 8 -16 12 -12 3 -21 10 -21 15 0 10 -65 30 -90 29 -8 0
-49 -16 -90 -35z"/>
<path d="M1449 1895 c-68 -19 -107 -42 -123 -74 -16 -30 -11 -47 9 -31 7 6 44
14 82 19 39 5 101 23 142 40 39 18 80 31 90 29 10 -2 19 2 21 7 7 24 -145 31
-221 10z m-11 -52 c2 -9 -9 -13 -40 -13 -40 1 -42 2 -23 16 23 17 56 15 63 -3z"/>
<path d="M1398 1773 c-33 -5 -37 -23 -5 -23 33 0 67 11 67 21 0 9 -12 9 -62 2z"/>
<path d="M801 1752 c-40 -20 -49 -37 -25 -46 11 -4 27 3 46 21 29 28 30 28 44
8 14 -19 13 -20 -13 -26 -22 -5 -18 -7 19 -8 57 -1 140 19 135 34 -11 33 -151
45 -206 17z"/>
<path d="M2370 1727 c0 -5 9 -55 21 -110 30 -144 23 -346 -14 -462 -50 -152
-139 -270 -341 -451 -187 -168 -333 -317 -316 -322 8 -3 30 15 53 41 21 26
109 109 195 186 250 221 331 313 397 452 48 102 67 200 68 344 0 126 -24 280
-49 312 -7 10 -14 14 -14 10z"/>
<path d="M1005 1680 c-3 -5 -30 -17 -60 -26 -30 -10 -53 -19 -51 -22 8 -7 104
29 116 44 7 7 10 14 7 14 -3 0 -8 -4 -12 -10z"/>
<path d="M1370 1540 c0 -5 6 -10 14 -10 7 0 19 -7 26 -15 14 -17 35 -21 25 -5
-10 16 -65 42 -65 30z"/>
<path d="M1446 1455 c-9 -26 -7 -32 5 -12 6 10 9 21 6 23 -2 3 -7 -2 -11 -11z"/>
<path d="M1257 1399 c-15 -6 -25 -14 -22 -19 8 -14 -25 -34 -68 -41 l-42 -6
42 -2 c31 -1 49 5 73 25 24 21 45 28 96 32 35 2 63 7 61 9 -10 10 -115 11
-140 2z"/>
<path d="M990 1388 c1 -34 30 -52 77 -49 26 1 50 5 53 7 3 3 -15 5 -40 3 -53
-3 -70 4 -70 32 0 10 -4 19 -10 19 -5 0 -10 -6 -10 -12z"/>
<path d="M1623 1282 c-37 -20 -43 -28 -43 -57 0 -31 -3 -35 -35 -41 -19 -3
-38 -10 -41 -15 -3 -5 -13 -9 -23 -9 -10 0 -24 -7 -31 -15 -7 -8 -23 -15 -37
-15 -13 0 -38 -7 -54 -16 -17 -8 -61 -18 -98 -21 -62 -5 -70 -4 -89 18 -12 12
-22 29 -22 36 0 8 -13 14 -32 14 -58 3 -63 4 -75 12 -9 5 -13 3 -13 -7 0 -8
13 -17 30 -21 17 -4 43 -17 58 -29 49 -42 62 -44 159 -35 141 13 328 94 358
155 6 12 17 29 24 38 24 28 7 32 -36 8z"/>
<path d="M2940 1201 c14 -4 48 -11 75 -14 31 -4 41 -3 25 2 -14 4 -48 11 -75
14 -31 4 -41 3 -25 -2z"/>
<path d="M245 230 c-9 -16 -13 -30 -11 -30 3 0 12 14 21 30 9 17 13 30 11 30
-3 0 -12 -13 -21 -30z"/>
<path d="M1180 144 c0 -16 30 -53 53 -65 16 -9 13 -1 -13 27 -19 21 -36 41
-37 43 -2 2 -3 0 -3 -5z"/>
</g>
</svg>
